<svg width="11" height="9" viewBox="0 0 11 9" fill="none" xmlns="http://www.w3.org/2000/svg">
<path d="M5.5 6H4.5C3.6798 5.99969 2.87512 6.22357 2.17294 6.64745C1.47076 7.07133 0.897801 7.67908 0.516001 8.405C0.505267 8.27027 0.49993 8.13516 0.500001 8C0.500001 5.2385 2.7385 3 5.5 3V0.25L10.75 4.5L5.5 8.75V6ZM4.5 5H6.5V6.654L9.1605 4.5L6.5 2.346V4H5.5C4.92509 3.99942 4.35683 4.12305 3.83413 4.36244C3.31143 4.60183 2.84661 4.95132 2.4715 5.387C3.11712 5.13093 3.80545 4.99961 4.5 5Z" fill="#56BFBF"/>
</svg>
